<mxfile host="app.diagrams.net" agent="Mozilla/5.0 (Windows NT 10.0; Win64; x64) AppleWebKit/537.36 (KHTML, like Gecko) Chrome/130.0.0.0 YaBrowser/24.12.0.0 Safari/537.36" version="26.0.10">
  <diagram name="Страница — 1" id="3690MIBFD441qm7mS8JK">
    <mxGraphModel dx="1050" dy="575" grid="1" gridSize="10" guides="1" tooltips="1" connect="1" arrows="1" fold="1" page="1" pageScale="1" pageWidth="827" pageHeight="1169" math="0" shadow="0">
      <root>
        <mxCell id="0" />
        <mxCell id="1" parent="0" />
        <mxCell id="lIKe0_nm2J6Ok_VBicBx-1" style="edgeStyle=orthogonalEdgeStyle;rounded=0;orthogonalLoop=1;jettySize=auto;html=1;exitX=0.5;exitY=1;exitDx=0;exitDy=0;entryX=0.5;entryY=0;entryDx=0;entryDy=0;endArrow=none;startFill=0;" edge="1" parent="1" source="lIKe0_nm2J6Ok_VBicBx-2" target="lIKe0_nm2J6Ok_VBicBx-4">
          <mxGeometry relative="1" as="geometry" />
        </mxCell>
        <mxCell id="lIKe0_nm2J6Ok_VBicBx-2" value="начало" style="rounded=1;whiteSpace=wrap;html=1;arcSize=50;" vertex="1" parent="1">
          <mxGeometry x="160" y="40" width="120" height="30" as="geometry" />
        </mxCell>
        <mxCell id="lIKe0_nm2J6Ok_VBicBx-3" style="edgeStyle=orthogonalEdgeStyle;rounded=0;orthogonalLoop=1;jettySize=auto;html=1;exitX=0.5;exitY=1;exitDx=0;exitDy=0;entryX=0.5;entryY=0;entryDx=0;entryDy=0;endArrow=none;startFill=0;" edge="1" parent="1" source="lIKe0_nm2J6Ok_VBicBx-4" target="lIKe0_nm2J6Ok_VBicBx-6">
          <mxGeometry relative="1" as="geometry" />
        </mxCell>
        <mxCell id="lIKe0_nm2J6Ok_VBicBx-4" value="a, b, c" style="shape=parallelogram;perimeter=parallelogramPerimeter;whiteSpace=wrap;html=1;fixedSize=1;" vertex="1" parent="1">
          <mxGeometry x="160" y="90" width="120" height="60" as="geometry" />
        </mxCell>
        <mxCell id="lIKe0_nm2J6Ok_VBicBx-5" style="edgeStyle=orthogonalEdgeStyle;rounded=0;orthogonalLoop=1;jettySize=auto;html=1;exitX=0.5;exitY=1;exitDx=0;exitDy=0;entryX=0.5;entryY=0;entryDx=0;entryDy=0;endArrow=none;startFill=0;" edge="1" parent="1" source="lIKe0_nm2J6Ok_VBicBx-6" target="lIKe0_nm2J6Ok_VBicBx-8">
          <mxGeometry relative="1" as="geometry" />
        </mxCell>
        <mxCell id="lIKe0_nm2J6Ok_VBicBx-6" value="Вычисление g" style="rounded=0;whiteSpace=wrap;html=1;" vertex="1" parent="1">
          <mxGeometry x="160" y="170" width="120" height="60" as="geometry" />
        </mxCell>
        <mxCell id="lIKe0_nm2J6Ok_VBicBx-7" style="edgeStyle=orthogonalEdgeStyle;rounded=0;orthogonalLoop=1;jettySize=auto;html=1;exitX=0.5;exitY=1;exitDx=0;exitDy=0;entryX=0.5;entryY=0;entryDx=0;entryDy=0;endArrow=none;startFill=0;" edge="1" parent="1" source="lIKe0_nm2J6Ok_VBicBx-8" target="lIKe0_nm2J6Ok_VBicBx-9">
          <mxGeometry relative="1" as="geometry" />
        </mxCell>
        <mxCell id="lIKe0_nm2J6Ok_VBicBx-8" value="g" style="shape=parallelogram;perimeter=parallelogramPerimeter;whiteSpace=wrap;html=1;fixedSize=1;" vertex="1" parent="1">
          <mxGeometry x="160" y="250" width="120" height="60" as="geometry" />
        </mxCell>
        <mxCell id="lIKe0_nm2J6Ok_VBicBx-9" value="конец" style="rounded=1;whiteSpace=wrap;html=1;arcSize=50;" vertex="1" parent="1">
          <mxGeometry x="160" y="330" width="120" height="30" as="geometry" />
        </mxCell>
      </root>
    </mxGraphModel>
  </diagram>
</mxfile>
